<svg width="36" height="29" viewBox="0 0 36 29" fill="none" xmlns="http://www.w3.org/2000/svg">
<path d="M14.6727 7.20683L11.7293 9.00156C8.71707 10.8383 7.21095 11.7567 6.70952 12.9458C6.29046 13.9396 6.29046 15.0604 6.70952 16.0542C7.21095 17.2433 8.71708 18.1617 11.7293 19.9984L14.6727 21.7932C15.9033 22.5436 16.5187 22.9188 17.1777 23.0617C17.7363 23.1828 18.3145 23.1828 18.8731 23.0617C19.5321 22.9188 20.1474 22.5436 21.3781 21.7932L24.3215 19.9984C27.3337 18.1617 28.8398 17.2433 29.3413 16.0542C29.7603 15.0604 29.7603 13.9396 29.3413 12.9458C28.8398 11.7567 27.3337 10.8383 24.3215 9.00156L21.3781 7.20683C20.1474 6.45641 19.5321 6.08121 18.8731 5.9383C18.3145 5.81715 17.7363 5.81715 17.1777 5.9383C16.5187 6.08121 15.9033 6.45641 14.6727 7.20683Z" stroke="black" stroke-width="1.5"/>
<circle cx="18.0254" cy="14.5" r="2.9751" stroke="black" stroke-width="1.5"/>
<line x1="27.0404" y1="4.9504" x2="8.19961" y2="25.2498" stroke="black" stroke-width="1.5"/>
</svg>
