<svg width="340" height="47" viewBox="0 0 340 47" fill="none" xmlns="http://www.w3.org/2000/svg">
<path d="M0.744141 23.2015C0.744141 9.35747 7.66785 0 18.6284 0C28.1781 0 33.2413 6.73148 33.8832 15.5123H27.4744C26.7055 9.42269 23.949 4.93619 18.1787 4.93619C10.7435 4.93619 6.89893 12.0521 6.89893 23.2049C6.89893 34.3577 10.9358 41.9851 18.1787 41.9851C24.2683 41.9851 26.7673 38.01 27.8588 31.409H33.8832C32.8568 41.0239 27.8588 46.856 18.3091 46.856C7.09116 46.856 0.747574 37.6908 0.747574 23.2049L0.744141 23.2015Z" fill="black"/>
<path d="M45.2439 23.428L293.523 23.428" stroke="black" stroke-width="2.01466" stroke-miterlimit="10"/>
<path d="M339.735 10.0234H335.266V7.78873C335.266 6.44999 334.373 5.55406 333.031 5.55406H326.777C325.438 5.55406 324.542 6.44656 324.542 7.78873V39.0638C324.542 40.4026 325.435 41.2985 326.777 41.2985H333.477V45.7679H311.138V41.2985H317.838C319.18 41.2985 320.073 40.406 320.073 39.0638V7.78873C320.073 6.44999 319.18 5.55406 317.838 5.55406H311.584C310.242 5.55406 309.349 6.44656 309.349 7.78873V10.0234H304.883V1.08815H339.732V10.0234H339.735Z" fill="black"/>
</svg>
