<svg width="341" height="48" viewBox="0 0 341 48" fill="none" xmlns="http://www.w3.org/2000/svg">
<path d="M0.737793 23.7341C0.737793 9.87659 7.66824 0.51001 18.6394 0.51001C28.1985 0.51001 33.2666 7.24804 33.9091 16.0374H27.4941C26.7244 9.94188 23.9653 5.451 18.1893 5.451C10.7469 5.451 6.89857 12.5739 6.89857 23.7375C6.89857 34.9011 10.9393 42.5359 18.1893 42.5359C24.2848 42.5359 26.7862 38.557 27.8789 31.9496H33.9091C32.8817 41.5739 27.8789 47.4117 18.3199 47.4117C7.09099 47.4117 0.74123 38.2375 0.74123 23.7375L0.737793 23.7341Z" fill="white"/>
<path d="M340.539 10.6705H336.066V8.43367C336.066 7.09362 335.172 6.19682 333.829 6.19682H327.568C326.228 6.19682 325.332 7.09019 325.332 8.43367V39.7392C325.332 41.0793 326.225 41.9761 327.568 41.9761H334.276V46.4498H311.914V41.9761H318.621C319.965 41.9761 320.858 41.0827 320.858 39.7392V8.43367C320.858 7.09362 319.965 6.19682 318.621 6.19682H312.361C311.017 6.19682 310.124 7.09019 310.124 8.43367V10.6705H305.654V1.72656H340.536V10.6705H340.539Z" fill="white"/>
</svg>
