<svg width="85" height="109" viewBox="0 0 85 109" fill="none" xmlns="http://www.w3.org/2000/svg">
<path d="M45.9131 48.354V56.1705C45.9131 58.5155 47.4764 60.0788 49.8214 60.0788H53.7297V63.987C53.7297 66.332 55.293 67.8953 57.6379 67.8953H61.5462V71.8036C61.5462 74.1485 63.1095 75.7118 65.4544 75.7118H69.3627V79.6201C69.3627 81.965 70.926 83.5283 73.2709 83.5283H77.1792V91.3448H53.7297V83.5283H57.6379C59.9829 83.5283 61.5462 81.965 61.5462 79.6201C61.5462 77.2751 59.9829 75.7118 57.6379 75.7118H53.7297V71.8036C53.7297 69.4586 52.1664 67.8953 49.8214 67.8953H45.9131V63.987C45.9131 61.6421 44.3498 60.0788 42.0049 60.0788C39.6599 60.0788 38.0966 61.6421 38.0966 63.987V67.8953H34.1884C31.8434 67.8953 30.2801 69.4586 30.2801 71.8036V75.7118H26.3719C24.0269 75.7118 22.4636 77.2751 22.4636 79.6201C22.4636 81.965 24.0269 83.5283 26.3719 83.5283H30.2801V91.3448H6.83057V83.5283H10.7388C13.0838 83.5283 14.6471 81.965 14.6471 79.6201V75.7118H18.5553C20.9003 75.7118 22.4636 74.1485 22.4636 71.8036V67.8953H26.3719C28.7168 67.8953 30.2801 66.332 30.2801 63.987V60.0788H34.1884C36.5333 60.0788 38.0966 58.5155 38.0966 56.1705V48.354C38.0966 46.0091 36.5333 44.4457 34.1884 44.4457H30.2801V40.5375C30.2801 38.1925 28.7168 36.6292 26.3719 36.6292H22.4636V32.721C22.4636 30.376 20.9003 28.8127 18.5553 28.8127H14.6471V24.9045C14.6471 22.5595 13.0838 20.9962 10.7388 20.9962H6.83057V13.1797H30.2801V20.9962H26.3719C24.0269 20.9962 22.4636 22.5595 22.4636 24.9045C22.4636 27.2494 24.0269 28.8127 26.3719 28.8127H30.2801V32.721C30.2801 35.0659 31.8434 36.6292 34.1884 36.6292H38.0966V40.5375C38.0966 42.8824 39.6599 44.4457 42.0049 44.4457C44.3498 44.4457 45.9131 42.8824 45.9131 40.5375V36.6292H49.8214C52.1664 36.6292 53.7297 35.0659 53.7297 32.721V28.8127H57.6379C59.9829 28.8127 61.5462 27.2494 61.5462 24.9045C61.5462 22.5595 59.9829 20.9962 57.6379 20.9962H53.7297V13.1797H77.1792V20.9962H73.2709C70.926 20.9962 69.3627 22.5595 69.3627 24.9045V28.8127H65.4544C63.1095 28.8127 61.5462 30.376 61.5462 32.721V36.6292H57.6379C55.293 36.6292 53.7297 38.1925 53.7297 40.5375V44.4457H49.8214C47.4764 44.4457 45.9131 46.0091 45.9131 48.354Z" fill="#F5DFDB" stroke="black" stroke-width="1.16279" stroke-miterlimit="10"/>
</svg>
