<svg width="31" height="33" viewBox="0 0 31 33" fill="none" xmlns="http://www.w3.org/2000/svg">
<path d="M11.3131 11.7002H9.83875C8.21027 11.7002 6.89014 13.0203 6.89014 14.6488V24.2988C6.89014 25.9273 8.21027 27.2474 9.83875 27.2474H21.0971C22.7256 27.2474 24.0457 25.9273 24.0457 24.2988V14.6488C24.0457 13.0203 22.7256 11.7002 21.0971 11.7002H19.6228" stroke="black" stroke-width="1.07222" stroke-linecap="round"/>
<path d="M14.9314 20.2778C14.9314 20.5739 15.1714 20.8139 15.4675 20.8139C15.7636 20.8139 16.0036 20.5739 16.0036 20.2778L14.9314 20.2778ZM15.8466 4.61958C15.6373 4.41021 15.2978 4.41021 15.0884 4.61958L11.6767 8.03137C11.4673 8.24073 11.4673 8.58018 11.6767 8.78954C11.886 8.99891 12.2255 8.99891 12.4348 8.78954L15.4675 5.75684L18.5002 8.78954C18.7096 8.99891 19.049 8.99891 19.2584 8.78954C19.4678 8.58018 19.4678 8.24073 19.2584 8.03137L15.8466 4.61958ZM16.0036 20.2778L16.0036 4.99866L14.9314 4.99866L14.9314 20.2778L16.0036 20.2778Z" fill="black"/>
</svg>
