<svg width="214" height="52" viewBox="0 0 214 52" fill="none" xmlns="http://www.w3.org/2000/svg">
<path d="M11 25.2592C11 16.1539 15.5387 10.0052 22.7225 10.0052C28.9828 10.0052 32.3008 14.4323 32.7234 20.2042H28.5237C28.0177 16.201 26.2126 13.2497 22.4303 13.2497C17.5577 13.2497 15.0379 17.9279 15.0379 25.2592C15.0379 32.5905 17.6829 37.6088 22.4303 37.6088C26.4213 37.6088 28.0594 34.9976 28.7741 30.6543H32.7234C32.0504 36.9756 28.7741 40.8114 22.5138 40.8114C15.1631 40.8114 11 34.7831 11 25.2592Z" fill="white"/>
<path d="M35.3682 25.4266C35.3682 15.6515 39.4426 10 46.0838 10C52.725 10 56.7994 15.6463 56.7994 25.4266C56.7994 35.2069 52.725 40.8114 46.0838 40.8114C39.4426 40.8114 35.3682 35.2069 35.3682 25.4266ZM52.7615 25.4266C52.7615 17.6714 50.1582 13.2444 46.0786 13.2444C41.9989 13.2444 39.3539 17.6714 39.3539 25.4266C39.3539 33.1818 41.9572 37.6036 46.0786 37.6036C50.1999 37.6036 52.7615 33.1766 52.7615 25.4266Z" fill="white"/>
<path d="M59.9868 40.1782V10.675H65.9133L75.4499 35.8349V10.675H79.2321V40.1782H73.5613L63.7326 14.3852V40.1782H59.992H59.9868Z" fill="white"/>
<path d="M105.636 16.6825H102.709V15.212C102.709 14.3329 102.125 13.7416 101.243 13.7416H97.1425C96.2661 13.7416 95.6765 14.3277 95.6765 15.212V35.7721C95.6765 36.6512 96.2608 37.2426 97.1425 37.2426H101.535V40.1782H86.8964V37.2426H91.2891C92.1655 37.2426 92.755 36.6565 92.755 35.7721V15.212C92.755 14.3329 92.1707 13.7416 91.2891 13.7416H87.1886C86.3121 13.7416 85.7226 14.3277 85.7226 15.212V16.6825H82.7959V10.8059H105.636V16.6825Z" fill="white"/>
<path d="M129.754 37.2425V40.1782H120.968V37.2425H122.434C123.311 37.2425 123.9 36.6564 123.9 35.7721V32.8364C123.9 31.9573 123.316 31.366 122.434 31.366H110.722C109.846 31.366 109.256 31.9521 109.256 32.8364V35.7721C109.256 36.6512 109.841 37.2425 110.722 37.2425H112.188V40.1782H103.403V37.2425H104.869C105.745 37.2425 106.335 36.6564 106.335 35.7721V31.366H107.801C108.677 31.366 109.267 30.7799 109.267 29.8955V22.5538H110.733C111.609 22.5538 112.199 21.9677 112.199 21.0833V16.6772H113.665C114.541 16.6772 115.131 16.0911 115.131 15.2068V10.8007H118.057V15.2068C118.057 16.0859 118.642 16.6772 119.523 16.6772H120.989V21.0833C120.989 21.9624 121.573 22.5538 122.455 22.5538H123.921V29.8955C123.921 30.7747 124.505 31.366 125.387 31.366H126.853V35.7721C126.853 36.6512 127.437 37.2425 128.319 37.2425H129.785H129.754ZM120.968 26.9599V24.0242C120.968 23.1451 120.384 22.5538 119.502 22.5538H118.036V18.1476C118.036 17.2685 117.452 16.6772 116.57 16.6772C115.689 16.6772 115.104 17.2633 115.104 18.1476V22.5538H113.638C112.762 22.5538 112.173 23.1398 112.173 24.0242V26.9599C112.173 27.839 112.757 28.4303 113.638 28.4303H119.497C120.374 28.4303 120.963 27.8442 120.963 26.9599H120.968Z" fill="white"/>
<path d="M149.213 10.8059H152.139V19.6181H149.213V18.1476C149.213 17.2685 148.628 16.6772 147.747 16.6772H146.281V15.2067C146.281 14.3276 145.697 13.7363 144.815 13.7363H136.03C135.153 13.7363 134.564 14.3224 134.564 15.2067V16.6772H133.098C132.221 16.6772 131.632 17.2633 131.632 18.1476V32.8312C131.632 33.7103 132.216 34.3016 133.098 34.3016H134.564V35.7721C134.564 36.6512 135.148 37.2425 136.03 37.2425H144.815C145.691 37.2425 146.281 36.6564 146.281 35.7721V34.3016H147.747C148.623 34.3016 149.213 33.7155 149.213 32.8312V31.3607H152.139V34.2964H150.673C149.797 34.2964 149.208 34.8825 149.208 35.7668V37.2373H147.742C146.865 37.2373 146.276 37.8234 146.276 38.7077V40.1782H134.564V38.7077C134.564 37.8286 133.979 37.2373 133.098 37.2373H131.632V35.7668C131.632 34.8877 131.047 34.2964 130.166 34.2964H128.7V16.6719H130.166C131.042 16.6719 131.632 16.0859 131.632 15.2015V13.7311H133.098C133.974 13.7311 134.564 13.145 134.564 12.2606V10.7902H146.276V12.2606C146.276 13.1397 146.86 13.7311 147.742 13.7311C148.623 13.7311 149.208 13.145 149.208 12.2606V10.7902L149.213 10.8059Z" fill="white"/>
<path d="M176.857 16.6825H173.931V15.212C173.931 14.3329 173.346 13.7416 172.465 13.7416H168.364C167.488 13.7416 166.898 14.3277 166.898 15.212V35.7721C166.898 36.6512 167.483 37.2426 168.364 37.2426H172.757V40.1782H158.118V37.2426H162.511C163.387 37.2426 163.977 36.6565 163.977 35.7721V15.212C163.977 14.3329 163.392 13.7416 162.511 13.7416H158.41C157.534 13.7416 156.944 14.3277 156.944 15.212V16.6825H154.018V10.8059H176.857V16.6825Z" fill="white"/>
<path d="M202.979 16.6824V34.3069H201.513C200.636 34.3069 200.047 34.893 200.047 35.7773V37.2478H198.581C197.704 37.2478 197.115 37.8338 197.115 38.7182V40.1887H182.476V38.7182C182.476 37.8391 181.892 37.2478 181.01 37.2478H179.544V35.7773C179.544 34.8982 178.96 34.3069 178.078 34.3069H176.612V16.6824H178.078C178.955 16.6824 179.544 16.0964 179.544 15.212V13.7416H181.01C181.887 13.7416 182.476 13.1555 182.476 12.2711V10.8007H197.115V12.2711C197.115 13.1502 197.699 13.7416 198.581 13.7416H200.047V15.212C200.047 16.0911 200.631 16.6824 201.513 16.6824H202.979ZM198.586 16.6824H197.12V15.212C197.12 14.3329 196.536 13.7416 195.654 13.7416H183.942C183.066 13.7416 182.476 14.3276 182.476 15.212V16.6824H181.01C180.134 16.6824 179.544 17.2685 179.544 18.1529V32.8364C179.544 33.7156 180.129 34.3069 181.01 34.3069H182.476V35.7773C182.476 36.6564 183.06 37.2478 183.942 37.2478H195.654C196.531 37.2478 197.12 36.6617 197.12 35.7773V34.3069H198.586C199.463 34.3069 200.052 33.7208 200.052 32.8364V18.1529C200.052 17.2738 199.468 16.6824 198.586 16.6824Z" fill="white"/>
</svg>
