<svg width="127" height="34" viewBox="0 0 127 34" fill="none" xmlns="http://www.w3.org/2000/svg">
<path d="M6.22803 17.0762C6.22803 11.6602 8.93607 8.00293 13.2222 8.00293C16.9575 8.00293 18.9372 10.6362 19.1893 14.0694H16.6836C16.3816 11.6883 15.3046 9.93275 13.0479 9.93275C10.1407 9.93275 8.63725 12.7154 8.63725 17.0762C8.63725 21.4369 10.2154 24.4219 13.0479 24.4219C15.4291 24.4219 16.4065 22.8687 16.833 20.2853H19.1893C18.7877 24.0453 16.833 26.3268 13.0977 26.3268C8.71196 26.3268 6.22803 22.7411 6.22803 17.0762Z" fill="black"/>
<path d="M20.7676 17.176C20.7676 11.3616 23.1986 8 27.161 8C31.1235 8 33.5545 11.3585 33.5545 17.176C33.5545 22.9934 31.1235 26.327 27.161 26.327C23.1986 26.327 20.7676 22.9934 20.7676 17.176ZM31.1453 17.176C31.1453 12.5631 29.5921 9.92982 27.1579 9.92982C24.7238 9.92982 23.1457 12.5631 23.1457 17.176C23.1457 21.7888 24.6989 24.419 27.1579 24.419C29.617 24.419 31.1453 21.7857 31.1453 17.176Z" fill="black"/>
<path d="M35.4561 25.9502V8.40137H38.9921L44.6821 23.3668V8.40137H46.9388V25.9502H43.5553L37.691 10.6082V25.9502H35.4592H35.4561Z" fill="black"/>
<path d="M62.6923 11.9747H60.9461V11.1001C60.9461 10.5771 60.5975 10.2254 60.0714 10.2254H57.6248C57.1019 10.2254 56.7502 10.574 56.7502 11.1001V23.3295C56.7502 23.8524 57.0988 24.2041 57.6248 24.2041H60.2457V25.9503H51.5115V24.2041H54.1324C54.6553 24.2041 55.0071 23.8555 55.0071 23.3295V11.1001C55.0071 10.5771 54.6584 10.2254 54.1324 10.2254H51.6858C51.1629 10.2254 50.8112 10.574 50.8112 11.1001V11.9747H49.0649V8.47925H62.6923V11.9747Z" fill="black"/>
<path d="M77.0825 24.2043V25.9505H71.8408V24.2043H72.7154C73.2384 24.2043 73.5901 23.8557 73.5901 23.3297V21.5835C73.5901 21.0606 73.2415 20.7089 72.7154 20.7089H65.7274C65.2045 20.7089 64.8528 21.0575 64.8528 21.5835V23.3297C64.8528 23.8526 65.2014 24.2043 65.7274 24.2043H66.6021V25.9505H61.3604V24.2043H62.235C62.7579 24.2043 63.1097 23.8557 63.1097 23.3297V20.7089H63.9843C64.5073 20.7089 64.859 20.3602 64.859 19.8342V15.4672H65.7337C66.2566 15.4672 66.6083 15.1186 66.6083 14.5926V11.9718H67.483C68.0059 11.9718 68.3577 11.6232 68.3577 11.0971V8.47632H70.1039V11.0971C70.1039 11.62 70.4525 11.9718 70.9786 11.9718H71.8532V14.5926C71.8532 15.1155 72.2018 15.4672 72.7279 15.4672H73.6026V19.8342C73.6026 20.3571 73.9512 20.7089 74.4772 20.7089H75.3519V23.3297C75.3519 23.8526 75.7005 24.2043 76.2266 24.2043H77.1012H77.0825ZM71.8408 18.088V16.3419C71.8408 15.819 71.4922 15.4672 70.9661 15.4672H70.0914V12.8464C70.0914 12.3235 69.7428 11.9718 69.2168 11.9718C68.6907 11.9718 68.3421 12.3204 68.3421 12.8464V15.4672H67.4675C66.9445 15.4672 66.5928 15.8158 66.5928 16.3419V18.088C66.5928 18.611 66.9414 18.9627 67.4675 18.9627H70.963C71.4859 18.9627 71.8377 18.6141 71.8377 18.088H71.8408Z" fill="black"/>
<path d="M88.6922 8.47931H90.4384V13.7209H88.6922V12.8463C88.6922 12.3234 88.3436 11.9717 87.8176 11.9717H86.9429V11.097C86.9429 10.5741 86.5943 10.2224 86.0682 10.2224H80.8265C80.3035 10.2224 79.9518 10.571 79.9518 11.097V11.9717H79.0771C78.5542 11.9717 78.2025 12.3203 78.2025 12.8463V21.5803C78.2025 22.1032 78.5511 22.4549 79.0771 22.4549H79.9518V23.3296C79.9518 23.8525 80.3004 24.2042 80.8265 24.2042H86.0682C86.5912 24.2042 86.9429 23.8556 86.9429 23.3296V22.4549H87.8176C88.3405 22.4549 88.6922 22.1063 88.6922 21.5803V20.7056H90.4384V22.4518H89.5638C89.0408 22.4518 88.6891 22.8004 88.6891 23.3264V24.2011H87.8144C87.2915 24.2011 86.9398 24.5497 86.9398 25.0757V25.9504H79.9518V25.0757C79.9518 24.5528 79.6032 24.2011 79.0771 24.2011H78.2025V23.3264C78.2025 22.8035 77.8538 22.4518 77.3278 22.4518H76.4531V11.9685H77.3278C77.8507 11.9685 78.2025 11.6199 78.2025 11.0939V10.2193H79.0771C79.6001 10.2193 79.9518 9.87064 79.9518 9.34461V8.46997H86.9398V9.34461C86.9398 9.86753 87.2884 10.2193 87.8144 10.2193C88.3405 10.2193 88.6891 9.87064 88.6891 9.34461V8.46997L88.6922 8.47931Z" fill="black"/>
<path d="M105.187 11.9747H103.441V11.1001C103.441 10.5771 103.092 10.2254 102.566 10.2254H100.119C99.5965 10.2254 99.2448 10.574 99.2448 11.1001V23.3295C99.2448 23.8524 99.5934 24.2041 100.119 24.2041H102.74V25.9503H94.0062V24.2041H96.627C97.15 24.2041 97.5017 23.8555 97.5017 23.3295V11.1001C97.5017 10.5771 97.1531 10.2254 96.627 10.2254H94.1805C93.6575 10.2254 93.3058 10.574 93.3058 11.1001V11.9747H91.5596V8.47925H105.187V11.9747Z" fill="black"/>
<path d="M120.772 11.9749V22.4581H119.897C119.374 22.4581 119.022 22.8068 119.022 23.3328V24.2074H118.148C117.625 24.2074 117.273 24.556 117.273 25.0821V25.9567H108.539V25.0821C108.539 24.5591 108.19 24.2074 107.664 24.2074H106.789V23.3328C106.789 22.8099 106.441 22.4581 105.915 22.4581H105.04V11.9749H105.915C106.438 11.9749 106.789 11.6263 106.789 11.1002V10.2256H107.664C108.187 10.2256 108.539 9.87699 108.539 9.35096V8.47632H117.273V9.35096C117.273 9.87388 117.622 10.2256 118.148 10.2256H119.022V11.1002C119.022 11.6232 119.371 11.9749 119.897 11.9749H120.772ZM118.151 11.9749H117.276V11.1002C117.276 10.5773 116.927 10.2256 116.401 10.2256H109.413C108.89 10.2256 108.539 10.5742 108.539 11.1002V11.9749H107.664C107.141 11.9749 106.789 12.3235 106.789 12.8495V21.5835C106.789 22.1064 107.138 22.4581 107.664 22.4581H108.539V23.3328C108.539 23.8557 108.887 24.2074 109.413 24.2074H116.401C116.924 24.2074 117.276 23.8588 117.276 23.3328V22.4581H118.151C118.674 22.4581 119.025 22.1095 119.025 21.5835V12.8495C119.025 12.3266 118.677 11.9749 118.151 11.9749Z" fill="black"/>
</svg>
