<svg width="61" height="60" viewBox="0 0 61 60" fill="none" xmlns="http://www.w3.org/2000/svg">
<path d="M22.0962 20.5542H19.1142C15.8205 20.5542 13.1504 23.2243 13.1504 26.5181V46.0361C13.1504 49.3299 15.8205 52 19.1142 52H41.8853C45.1791 52 47.8492 49.3299 47.8492 46.0361V26.5181C47.8492 23.2243 45.1791 20.5542 41.8853 20.5542H38.9034" stroke="black" stroke-width="2.16867" stroke-linecap="round"/>
<path d="M29.4157 37.9036C29.4157 38.5025 29.9011 38.988 30.5 38.988C31.0989 38.988 31.5843 38.5025 31.5843 37.9036L29.4157 37.9036ZM31.2667 6.23327C30.8433 5.80981 30.1567 5.80981 29.7333 6.23327L22.8326 13.1339C22.4091 13.5574 22.4091 14.244 22.8326 14.6674C23.256 15.0909 23.9426 15.0909 24.3661 14.6674L30.5 8.5335L36.6339 14.6674C37.0574 15.0909 37.744 15.0909 38.1674 14.6674C38.5909 14.244 38.5909 13.5574 38.1674 13.1339L31.2667 6.23327ZM31.5843 37.9036L31.5843 7.00001L29.4157 7.00001L29.4157 37.9036L31.5843 37.9036Z" fill="black"/>
</svg>
