<svg width="62" height="60" viewBox="0 0 62 60" fill="none" xmlns="http://www.w3.org/2000/svg">
<path d="M7 30.1214C7 20.4984 11.8115 14 19.4271 14C26.0637 14 29.5811 18.6788 30.029 24.779H25.577C25.0405 20.5481 23.127 17.4289 19.1173 17.4289C13.9518 17.4289 11.2806 22.3732 11.2806 30.1214C11.2806 37.8697 14.0846 43.1735 19.1173 43.1735C23.3482 43.1735 25.0848 40.4137 25.8424 35.8234H30.029C29.3156 42.5043 25.8424 46.5581 19.2058 46.5581C11.4133 46.5581 7 40.187 7 30.1214Z" fill="#F5DFDB"/>
<path d="M55.6632 21.0571H52.5605V19.503C52.5605 18.5739 51.9411 17.9489 51.0065 17.9489H46.6595C45.7304 17.9489 45.1054 18.5684 45.1054 19.503V41.2324C45.1054 42.1615 45.7248 42.7865 46.6595 42.7865H51.3162V45.8891H35.7975V42.7865H40.4543C41.3834 42.7865 42.0083 42.1671 42.0083 41.2324V19.503C42.0083 18.5739 41.3889 17.9489 40.4543 17.9489H36.1072C35.1781 17.9489 34.5532 18.5684 34.5532 19.503V21.0571H31.4506V14.8463H55.6632V21.0571Z" fill="#F5DFDB"/>
</svg>
