<svg width="61" height="61" viewBox="0 0 61 61" fill="none" xmlns="http://www.w3.org/2000/svg">
<circle cx="30.5" cy="30.5" r="29.92" fill="#F5DFDB" stroke="black" stroke-width="1.16"/>
<path fill-rule="evenodd" clip-rule="evenodd" d="M31.3533 16.407L33.3201 14.768L32.6799 13.9998L29.6799 16.4998L29.3234 16.7969L29.5931 17.1745L32.0931 20.6745L32.9069 20.0932L30.9771 17.3916C38.7644 17.6433 45 24.0354 45 31.8839C45 39.892 38.5081 46.3839 30.5 46.3839C22.4919 46.3839 16 39.892 16 31.8839C16 28.8992 16.9018 26.1252 18.4477 23.8194C18.1309 23.6975 17.8233 23.5571 17.5261 23.3996C15.9288 25.8371 15 28.752 15 31.8839C15 40.4443 21.9396 47.3839 30.5 47.3839C39.0604 47.3839 46 40.4443 46 31.8839C46 23.6098 39.5169 16.8499 31.3533 16.407Z" fill="black"/>
<path d="M31.3533 16.407L31.0332 16.0228L30.0559 16.8373L31.3262 16.9062L31.3533 16.407ZM33.3201 14.768L33.6402 15.1521L34.0243 14.832L33.7042 14.4479L33.3201 14.768ZM32.6799 13.9998L33.064 13.6797L32.7439 13.2956L32.3598 13.6156L32.6799 13.9998ZM29.6799 16.4998L30 16.8839L30 16.8839L29.6799 16.4998ZM29.3234 16.7969L29.0033 16.4127L28.6468 16.7098L28.9165 17.0875L29.3234 16.7969ZM29.5931 17.1745L29.1863 17.4651L29.1863 17.4651L29.5931 17.1745ZM32.0931 20.6745L31.6863 20.9651L31.9769 21.372L32.3838 21.0814L32.0931 20.6745ZM32.9069 20.0932L33.1975 20.5001L33.6044 20.2095L33.3137 19.8026L32.9069 20.0932ZM30.9771 17.3916L30.9933 16.8918L29.9823 16.8591L30.5702 17.6822L30.9771 17.3916ZM18.4477 23.8194L18.863 24.0978L19.2117 23.5777L18.6273 23.3528L18.4477 23.8194ZM17.5261 23.3996L17.7602 22.9578L17.3576 22.7445L17.1079 23.1256L17.5261 23.3996ZM31.6734 16.7911L33.6402 15.1521L33 14.3839L31.0332 16.0228L31.6734 16.7911ZM33.7042 14.4479L33.064 13.6797L32.2958 14.3198L32.936 15.0881L33.7042 14.4479ZM32.3598 13.6156L29.3598 16.1156L30 16.8839L33 14.3839L32.3598 13.6156ZM29.3598 16.1156L29.0033 16.4127L29.6435 17.181L30 16.8839L29.3598 16.1156ZM28.9165 17.0875L29.1863 17.4651L30 16.8839L29.7303 16.5062L28.9165 17.0875ZM29.1863 17.4651L31.6863 20.9651L32.5 20.3839L30 16.8839L29.1863 17.4651ZM32.3838 21.0814L33.1975 20.5001L32.6162 19.6864L31.8025 20.2676L32.3838 21.0814ZM33.3137 19.8026L31.384 17.1009L30.5702 17.6822L32.5 20.3839L33.3137 19.8026ZM30.9609 17.8913C38.4794 18.1344 44.5 24.3061 44.5 31.8839H45.5C45.5 23.7647 39.0494 17.1523 30.9933 16.8918L30.9609 17.8913ZM44.5 31.8839C44.5 39.6159 38.232 45.8839 30.5 45.8839V46.8839C38.7843 46.8839 45.5 40.1681 45.5 31.8839H44.5ZM30.5 45.8839C22.768 45.8839 16.5 39.6159 16.5 31.8839H15.5C15.5 40.1681 22.2157 46.8839 30.5 46.8839V45.8839ZM16.5 31.8839C16.5 29.0014 17.3706 26.3238 18.863 24.0978L18.0324 23.5409C16.433 25.9265 15.5 28.797 15.5 31.8839H16.5ZM18.6273 23.3528C18.3293 23.238 18.0398 23.106 17.7602 22.9578L17.292 23.8415C17.6067 24.0082 17.9325 24.1569 18.2681 24.286L18.6273 23.3528ZM17.1079 23.1256C15.4589 25.642 14.5 28.6517 14.5 31.8839H15.5C15.5 28.8523 16.3988 26.0322 17.9443 23.6737L17.1079 23.1256ZM14.5 31.8839C14.5 40.7204 21.6634 47.8839 30.5 47.8839V46.8839C22.2157 46.8839 15.5 40.1681 15.5 31.8839H14.5ZM30.5 47.8839C39.3366 47.8839 46.5 40.7204 46.5 31.8839H45.5C45.5 40.1681 38.7843 46.8839 30.5 46.8839V47.8839ZM46.5 31.8839C46.5 23.3427 39.8077 16.3649 31.3804 15.9077L31.3262 16.9062C39.226 17.3348 45.5 23.8768 45.5 31.8839H46.5Z" fill="black"/>
</svg>
